<svg width="12" height="18" viewBox="0 0 12 18" fill="none" xmlns="http://www.w3.org/2000/svg">
<path d="M2.02558 0.376119L2.94785 0.0812647C3.81356 -0.194733 4.73669 0.251834 5.10783 1.1244L5.84411 2.86267C6.16468 3.61952 5.98725 4.51008 5.40354 5.06379L3.78013 6.60492C3.87956 7.52719 4.18984 8.4349 4.70926 9.32803C5.20279 10.1922 5.86471 10.9486 6.65582 11.5523L8.6058 10.9009C9.3455 10.6549 10.1504 10.9386 10.6029 11.6046L11.6598 13.156C12.1869 13.9308 12.0926 14.9988 11.4386 15.6554L10.7375 16.3591C10.0398 17.0594 9.04294 17.314 8.12152 17.026C5.94525 16.3471 3.9447 14.332 2.119 10.9806C0.290736 7.62405 -0.354686 4.77493 0.183594 2.43667C0.409878 1.45268 1.11016 0.668402 2.02558 0.376119Z" fill="#cc3e36"/>
</svg>
