<svg width="77" height="56" viewBox="0 0 77 56" fill="none" xmlns="http://www.w3.org/2000/svg">
<path d="M0 10.5336C0.336411 10.5479 0.64931 10.5623 0.940504 10.5767C1.18829 10.5911 1.44331 10.6019 1.70738 10.6091C1.96963 10.6163 2.18125 10.6198 2.34222 10.6198C2.61894 10.6198 3.08196 10.6055 3.73308 10.5767C4.38239 10.5479 5.12213 10.5192 5.95412 10.4904C6.7861 10.4616 7.65064 10.4329 8.54774 10.4041C9.44483 10.3753 10.2877 10.361 11.0762 10.361C13.1924 10.361 15.2054 10.6216 17.1172 11.1448C19.0289 11.668 20.7074 12.5237 22.1525 13.7121C23.5976 14.9022 24.7425 16.4609 25.589 18.39C26.4354 20.319 26.8586 22.6903 26.8586 25.5057C26.8586 27.5229 26.6362 29.3351 26.1912 30.9459C25.7463 32.5567 25.1223 33.977 24.3193 35.2103C23.5162 36.4436 22.5576 37.4989 21.4417 38.3762C20.3257 39.2536 19.0922 39.9763 17.743 40.5408C16.3937 41.1071 14.9522 41.5206 13.4203 41.7813C11.8883 42.042 10.3039 42.1732 8.67073 42.1732C8.08653 42.1732 7.38296 42.1552 6.55821 42.1193C5.73346 42.0833 4.90509 42.0438 4.07311 41.9988C3.24112 41.9557 2.45616 41.9161 1.72004 41.8802C0.982104 41.8442 0.410566 41.8262 0.00180866 41.8262V41.7399C0.0886245 41.4361 0.173632 41.0586 0.253213 40.6091C0.332794 40.1597 0.403332 39.6006 0.461209 38.9336C0.519086 38.2666 0.562494 37.4719 0.593241 36.5515C0.62218 35.631 0.636649 34.5541 0.636649 33.3208V19.1559C0.636649 17.9226 0.62218 16.8385 0.593241 15.9036C0.564303 14.9688 0.520895 14.1633 0.461209 13.4892C0.403332 12.815 0.332794 12.2451 0.253213 11.7812C0.171823 11.3102 0.0868158 10.9255 0 10.6216V10.5336ZM4.79296 12.4932C4.76402 14.1184 4.73508 15.6915 4.70614 17.2142C4.69167 17.8668 4.68082 18.5338 4.67358 19.2152C4.66635 19.8965 4.65911 20.5671 4.65188 21.2287C4.64464 21.8885 4.63741 22.5196 4.63018 23.1218C4.62294 23.7241 4.61932 24.2562 4.61932 24.7219C4.61932 25.6945 4.62656 26.8685 4.64103 28.2474C4.6555 29.6263 4.67358 31.0394 4.69529 32.4902C4.71699 33.941 4.74955 35.3344 4.79296 36.6683C4.83636 38.0023 4.88701 39.1133 4.94669 39.9979C5.15107 40.0266 5.42418 40.059 5.76782 40.095C6.10966 40.1309 6.47139 40.1597 6.85121 40.1812C7.23103 40.2028 7.60181 40.2208 7.96716 40.2352C8.33251 40.2496 8.63817 40.2568 8.88596 40.2568C9.90785 40.2568 10.9551 40.1884 12.0276 40.05C13.1001 39.9116 14.1365 39.6545 15.1367 39.2769C16.1369 38.8994 17.0774 38.3816 17.96 37.7218C18.8426 37.062 19.6168 36.2099 20.2805 35.1654C20.9443 34.1208 21.4652 32.8624 21.845 31.39C22.2248 29.9175 22.4148 28.1809 22.4148 26.1781C22.4148 23.9596 22.1453 21.982 21.6045 20.2489C21.0637 18.5158 20.2733 17.0542 19.2297 15.8641C18.1861 14.6739 16.8947 13.7714 15.3555 13.1548C13.8164 12.5381 12.0457 12.2307 10.0471 12.2307C9.65283 12.2307 9.2079 12.2415 8.71233 12.263C8.21675 12.2846 7.72299 12.3062 7.23465 12.3278C6.74631 12.3493 6.2851 12.3781 5.85464 12.4141C5.42418 12.4518 5.07149 12.4788 4.79296 12.4932Z" fill="#0A545A"/>
<path d="M32.6482 41.7363C32.735 41.4325 32.8164 41.055 32.8887 40.6055C32.9611 40.1561 33.028 39.597 33.0859 38.93C33.1438 38.263 33.1872 37.4683 33.2179 36.5479C33.2469 35.6274 33.2613 34.5505 33.2613 33.3172V19.1523C33.2613 17.919 33.2469 16.8421 33.2179 15.9216C33.189 15.0011 33.1456 14.2029 33.0859 13.5287C33.028 12.8545 32.9611 12.2918 32.8887 11.8424C32.8164 11.3929 32.735 11.0154 32.6482 10.7115V10.6252H37.8807V10.7115C37.7938 11.0154 37.7088 11.3929 37.6292 11.8424C37.5497 12.2918 37.4827 12.8545 37.4321 13.5287C37.3815 14.2029 37.3362 15.0011 37.3001 15.9216C37.2639 16.8421 37.2458 17.9208 37.2458 19.1523V33.3172C37.2458 34.5505 37.2639 35.6274 37.3001 36.5479C37.3362 37.4701 37.3797 38.263 37.4321 38.93C37.4827 39.597 37.5479 40.1561 37.6292 40.6055C37.7088 41.055 37.7938 41.4325 37.8807 41.7363V41.8226H32.6482V41.7363Z" fill="#0A545A"/>
<path d="M59.1016 10.0984C61.5379 10.0984 63.7897 10.4939 65.8552 11.2849C67.9207 12.076 69.704 13.1852 71.207 14.6145C72.71 16.0437 73.8856 17.7589 74.7321 19.7598C75.5785 21.7608 76.0018 23.9739 76.0018 26.3955C76.0018 27.7745 75.8408 29.13 75.5207 30.464C75.1987 31.798 74.7285 33.06 74.1081 34.2502C73.4877 35.4403 72.7245 36.5388 71.8201 37.5456C70.9158 38.5541 69.8831 39.4243 68.7219 40.156C67.5625 40.8895 66.282 41.4612 64.8803 41.8747C63.4786 42.2882 61.9684 42.4949 60.3496 42.4949C57.9115 42.4949 55.6615 42.1066 53.5961 41.3317C51.5306 40.5551 49.7472 39.4566 48.2442 38.0346C46.7412 36.6125 45.5656 34.9046 44.7191 32.9108C43.8727 30.917 43.4495 28.7003 43.4495 26.2643C43.4495 24.8872 43.6104 23.5298 43.9306 22.1959C44.2507 20.8619 44.7228 19.5926 45.3431 18.3881C45.9635 17.1836 46.7231 16.0779 47.6202 15.0693C48.5173 14.0608 49.5465 13.187 50.7076 12.4481C51.867 11.7092 53.1511 11.1321 54.5601 10.7186C55.9672 10.3051 57.4811 10.0984 59.1016 10.0984ZM60.3496 40.5389C61.9702 40.5389 63.4496 40.2495 64.7935 39.6688C66.1355 39.0881 67.2931 38.2467 68.2625 37.1446C69.2338 36.0426 69.988 34.696 70.5288 33.1086C71.0677 31.5193 71.339 29.7179 71.339 27.7008C71.339 25.4679 71.0804 23.3968 70.5613 21.4893C70.044 19.5818 69.2735 17.9279 68.2516 16.5292C67.2298 15.1287 65.9565 14.0338 64.4318 13.2428C62.9071 12.4517 61.1291 12.0562 59.1016 12.0562C57.4811 12.0562 55.9998 12.3421 54.6577 12.9156C53.3157 13.4891 52.1582 14.3196 51.1887 15.4073C50.2175 16.495 49.4633 17.8308 48.9225 19.411C48.3817 20.9913 48.1122 22.7909 48.1122 24.8063C48.1122 27.0248 48.3672 29.0959 48.8791 31.0177C49.3891 32.9396 50.156 34.6043 51.1779 36.012C52.1998 37.4197 53.4767 38.5254 55.0086 39.3308C56.5406 40.1362 58.3203 40.5389 60.3496 40.5389Z" fill="#0A545A"/>
<path d="M35.0646 6.51178C34.7463 6.60167 34.3954 6.66819 34.0391 6.6592C33.1294 6.63942 32.5759 6.37335 32.3914 5.86816C31.9429 4.63846 33.8601 2.44873 34.5709 1.83208C35.0447 1.42038 35.7664 0.848676 36.5134 0.45136L36.5459 0.514284L36.5134 0.45136C37.3255 0.0198857 37.9802 -0.104163 38.4613 0.0846069C38.8086 0.219443 39.0618 0.516082 39.2173 0.967332C39.5809 2.02085 39.3204 3.30628 38.5391 4.32025C37.8988 5.14904 36.9312 5.81962 35.6579 6.31042C35.4806 6.37874 35.2799 6.45065 35.0646 6.51178Z" fill="#0A545A"/>
<path d="M18.5278 55.8707V49.1936H19.1464V55.3295H21.9607V55.8725H18.5278V55.8707Z" fill="#0A545A"/>
<path d="M25.1367 55.8707V49.1936H25.7553V55.8707H25.1367Z" fill="#0A545A"/>
<path d="M31.0401 55.8707L28.2222 49.1936H28.9221L31.2842 54.9448L33.6409 49.1936H34.3409L31.523 55.8707H31.0401Z" fill="#0A545A"/>
<path d="M37.5027 55.8707V49.1936H38.1213V55.8707H37.5027Z" fill="#0A545A"/>
<path d="M41.9392 55.8707V49.1936H42.5578L46.1642 54.8225V49.1936H46.7828V55.8707H46.1642L42.5578 50.2489V55.8707H41.9392Z" fill="#0A545A"/>
<path d="M53.5072 56C53.0405 56 52.6064 55.9102 52.2067 55.7322C51.807 55.5542 51.4561 55.3079 51.1559 54.9915C50.8557 54.6751 50.6223 54.3083 50.4541 53.8894C50.2859 53.4705 50.2009 53.0193 50.2009 52.5357C50.2009 52.0898 50.2751 51.6601 50.4252 51.2448C50.5753 50.8295 50.7924 50.4592 51.0817 50.1338C51.3693 49.8084 51.722 49.5495 52.138 49.3589C52.554 49.1666 53.0279 49.0713 53.556 49.0713C53.9033 49.0713 54.2324 49.1144 54.5417 49.2007C54.851 49.287 55.135 49.4075 55.3954 49.5603C55.654 49.7149 55.8801 49.8947 56.0737 50.1032L55.7517 50.5725C55.4967 50.283 55.1766 50.0529 54.7913 49.8785C54.4061 49.7041 53.9919 49.6178 53.5488 49.6178C53.1255 49.6178 52.7475 49.6969 52.4147 49.8533C52.0819 50.0097 51.7998 50.2237 51.5701 50.4952C51.3386 50.7666 51.1649 51.0758 51.0456 51.4228C50.9262 51.7698 50.8665 52.1348 50.8665 52.5177C50.8665 52.9312 50.9334 53.3141 51.0673 53.6683C51.2011 54.0225 51.3892 54.3335 51.6316 54.5996C51.8721 54.8656 52.1561 55.0724 52.478 55.218C52.8018 55.3654 53.149 55.4391 53.5198 55.4391C53.8219 55.4391 54.1167 55.3888 54.4079 55.2899C54.6991 55.1892 54.9595 55.0454 55.191 54.8566C55.4225 54.6679 55.607 54.4413 55.7445 54.1789C55.8819 53.9164 55.9507 53.6198 55.9507 53.2908V53.0606H53.4746V52.5626H56.5855V53.1577C56.5855 53.6305 56.4951 54.044 56.316 54.4C56.137 54.756 55.8982 55.0526 55.5998 55.2881C55.3014 55.5236 54.9704 55.7016 54.6068 55.8221C54.2415 55.9407 53.8761 56 53.5072 56Z" fill="#0A545A"/>
</svg>
