<svg width="127" height="95" viewBox="0 0 127 95" fill="none" xmlns="http://www.w3.org/2000/svg">
<path d="M0 17.683C0.556108 17.7071 1.07915 17.7313 1.56311 17.7554C1.97494 17.7796 2.39878 17.7977 2.83765 17.8097C3.27352 17.8218 3.62522 17.8278 3.89276 17.8278C4.35267 17.8278 5.12221 17.8037 6.20436 17.7554C7.28351 17.7071 8.51296 17.6588 9.89572 17.6106C11.2785 17.5623 12.7153 17.514 14.2063 17.4657C15.6973 17.4174 17.0981 17.3933 18.4087 17.3933C21.9257 17.3933 25.2714 17.8309 28.4487 18.709C31.626 19.5872 34.4156 21.0236 36.8174 23.0183C39.2191 25.0161 41.1219 27.6325 42.5287 30.8705C43.9355 34.1085 44.6389 38.0889 44.6389 42.8147C44.6389 46.2006 44.2692 49.2424 43.5297 51.9463C42.7903 54.6502 41.7532 57.0342 40.4185 59.1044C39.0839 61.1746 37.4907 62.946 35.633 64.4186C33.7783 65.8913 31.7282 67.1044 29.4858 68.052C27.2433 69.0026 24.8475 69.6966 22.3014 70.1342C19.7554 70.5718 17.1221 70.7921 14.4077 70.7921C13.4368 70.7921 12.2674 70.7619 10.8967 70.7015C9.52598 70.6412 8.14924 70.5748 6.76648 70.4994C5.38373 70.4269 4.07913 70.3605 2.85569 70.3002C1.62925 70.2398 0.679354 70.2097 0 70.2097V70.0648C0.144287 69.5548 0.285569 68.9211 0.417833 68.1667C0.550096 67.4122 0.66733 66.4737 0.763521 65.3541C0.859713 64.2345 0.931857 62.9007 0.982959 61.3556C1.03105 59.8105 1.0551 58.0029 1.0551 55.9328V32.156C1.0551 30.0859 1.03105 28.2662 0.982959 26.697C0.934863 25.1277 0.859713 23.7758 0.763521 22.6441C0.66733 21.5125 0.550096 20.5559 0.417833 19.7773C0.285569 18.9866 0.144287 18.3408 0 17.8309V17.683ZM7.96587 20.9723C7.91778 23.7003 7.86968 26.3409 7.82158 28.8969C7.79754 29.9923 7.7795 31.1119 7.76748 32.2556C7.75545 33.3993 7.74343 34.525 7.7314 35.6355C7.71938 36.743 7.70736 37.8022 7.69533 38.8132C7.68331 39.8241 7.6773 40.7173 7.6773 41.4989C7.6773 43.1315 7.68932 45.1021 7.71337 47.4167C7.73742 49.7313 7.76748 52.1033 7.80355 54.5386C7.83962 56.9739 7.89373 59.3126 7.96587 61.5518C8.03802 63.7909 8.12218 65.6559 8.22138 67.1406C8.56106 67.1889 9.01496 67.2432 9.5861 67.3036C10.1572 67.3639 10.7554 67.4122 11.3867 67.4484C12.0179 67.4846 12.6342 67.5148 13.2414 67.539C13.8486 67.5631 14.3566 67.5752 14.7684 67.5752C16.4668 67.5752 18.2073 67.4605 19.9898 67.2281C21.7724 66.9958 23.4948 66.5642 25.1571 65.9305C26.8194 65.2968 28.3826 64.4277 29.8495 63.3202C31.3164 62.2127 32.603 60.7823 33.7062 59.029C34.8094 57.2757 35.6751 55.1632 36.3063 52.6917C36.9376 50.2202 37.2532 47.3051 37.2532 43.9433C37.2532 40.2194 36.8053 36.8999 35.9065 33.9908C35.0078 31.0817 33.6941 28.6283 31.9597 26.6306C30.2252 24.6328 28.0789 23.1179 25.5209 22.0828C22.9628 21.0478 20.0199 20.5317 16.6983 20.5317C16.043 20.5317 15.3035 20.5498 14.4799 20.586C13.6562 20.6223 12.8356 20.6585 12.024 20.6947C11.2123 20.7309 10.4458 20.7792 9.73039 20.8395C9.01496 20.9029 8.42879 20.9482 7.96587 20.9723Z" fill="url(#paint0_linear_84_191)"/>
<path d="M54.261 70.0587C54.4053 69.5487 54.5405 68.915 54.6608 68.1606C54.781 67.4061 54.8922 66.4676 54.9884 65.348C55.0846 64.2285 55.1568 62.8946 55.2079 61.3495C55.256 59.8045 55.28 57.9968 55.28 55.9267V32.1499C55.28 30.0798 55.256 28.2721 55.2079 26.7271C55.1598 25.182 55.0846 23.8421 54.9884 22.7105C54.8922 21.5788 54.781 20.6343 54.6608 19.8798C54.5405 19.1254 54.4053 18.4917 54.261 17.9817V17.8368H62.9573V17.9817C62.813 18.4917 62.6717 19.1254 62.5395 19.8798C62.4042 20.6343 62.296 21.5788 62.2118 22.7105C62.1277 23.8421 62.0525 25.182 61.9924 26.7271C61.9323 28.2721 61.9022 30.0828 61.9022 32.1499V55.9267C61.9022 57.9968 61.9323 59.8045 61.9924 61.3495C62.0525 62.8976 62.1247 64.2285 62.2118 65.348C62.296 66.4676 62.4042 67.4061 62.5395 68.1606C62.6717 68.915 62.813 69.5487 62.9573 70.0587V70.2036H54.261V70.0587Z" fill="url(#paint1_linear_84_191)"/>
<path d="M98.2267 16.9526C102.276 16.9526 106.018 17.6165 109.451 18.9443C112.884 20.2721 115.848 22.134 118.346 24.5331C120.844 26.9322 122.795 29.8111 124.201 33.1699C125.608 36.5286 126.312 40.2435 126.312 44.3083C126.312 46.6229 126.044 48.8983 125.512 51.1375C124.977 53.3766 124.195 55.4951 123.164 57.4928C122.133 59.4906 120.868 61.3344 119.362 63.0243C117.859 64.7173 116.142 66.1779 114.213 67.4061C112.283 68.6373 110.154 69.5969 107.828 70.291C105.498 70.9851 102.988 71.3321 100.298 71.3321C96.2458 71.3321 92.5063 70.6803 89.0735 69.3797C85.6407 68.076 82.6767 66.2322 80.1788 63.8451C77.6808 61.4581 75.7269 58.5913 74.3231 55.2446C72.9163 51.8979 72.2129 48.1771 72.2129 44.088C72.2129 41.7765 72.4804 39.4981 73.0125 37.2589C73.5445 35.0197 74.3291 32.8892 75.3602 30.8673C76.3912 28.8455 77.6537 26.9896 79.1447 25.2966C80.6357 23.6037 82.3461 22.137 84.2759 20.8968C86.2058 19.6565 88.337 18.6878 90.6787 17.9937C93.0174 17.2996 95.5334 16.9526 98.2267 16.9526ZM100.301 68.0489C102.994 68.0489 105.453 67.563 107.687 66.5883C109.917 65.6135 111.841 64.2012 113.452 62.3514C115.066 60.5015 116.32 58.2412 117.219 55.5766C118.114 52.9089 118.565 49.8851 118.565 46.4992C118.565 42.7512 118.135 39.2748 117.273 36.0729C116.41 32.8711 115.132 30.0948 113.434 27.747C111.736 25.3962 109.619 23.5584 107.085 22.2306C104.551 20.9028 101.596 20.2389 98.2267 20.2389C95.5334 20.2389 93.0715 20.7187 90.841 21.6814C88.6106 22.644 86.6867 24.0382 85.0755 25.8639C83.4613 27.6897 82.2078 29.9319 81.309 32.5844C80.4102 35.237 79.9623 38.2578 79.9623 41.6407C79.9623 45.3645 80.3862 48.841 81.2369 52.0669C82.0846 55.2929 83.3591 58.0873 85.0575 60.4502C86.7559 62.8131 88.8781 64.669 91.4242 66.0209C93.9703 67.3729 96.9281 68.0489 100.301 68.0489Z" fill="url(#paint2_linear_84_191)"/>
<path d="M58.277 10.9321C57.7479 11.0829 57.1648 11.1946 56.5726 11.1795C55.0636 11.1463 54.1407 10.6997 53.8341 9.85171C53.0886 7.78758 56.275 4.11198 57.4563 3.07689C58.2439 2.38885 59.4433 1.42619 60.6848 0.759275L60.7389 0.864896L60.6848 0.759275C62.0345 0.0350186 63.1226 -0.173205 63.9222 0.143657C64.4994 0.369987 64.9202 0.867913 65.1787 1.62536C65.7829 3.39376 65.3501 5.55144 64.0515 7.25344C62.9874 8.64462 61.3792 9.77023 59.2629 10.5941C58.9683 10.7087 58.6347 10.8295 58.277 10.9321Z" fill="url(#paint3_linear_84_191)"/>
<path d="M30.7935 93.784V82.5761H31.8215V92.8757H36.4988V93.787H30.7935V93.784Z" fill="url(#paint4_linear_84_191)"/>
<path d="M41.7773 93.784V82.5761H42.8054V93.784H41.7773Z" fill="url(#paint5_linear_84_191)"/>
<path d="M51.5888 93.784L46.9055 82.5761H48.0688L51.9947 92.2299L55.9115 82.5761H57.0748L52.3914 93.784H51.5888Z" fill="url(#paint6_linear_84_191)"/>
<path d="M62.3293 93.784V82.5761H63.3574V93.784H62.3293Z" fill="url(#paint7_linear_84_191)"/>
<path d="M69.7031 93.784V82.5761H70.7312L76.7251 92.0247V82.5761H77.7532V93.784H76.7251L70.7312 84.3475V93.784H69.7031Z" fill="url(#paint8_linear_84_191)"/>
<path d="M88.9293 94.0012C88.1537 94.0012 87.4323 93.8503 86.768 93.5516C86.1036 93.2528 85.5205 92.8394 85.0215 92.3083C84.5225 91.7771 84.1347 91.1615 83.8552 90.4584C83.5756 89.7552 83.4343 88.9978 83.4343 88.186C83.4343 87.4376 83.5576 86.7164 83.8071 86.0193C84.0566 85.3222 84.4173 84.7005 84.8982 84.1543C85.3762 83.6081 85.9624 83.1736 86.6537 82.8537C87.3451 82.5308 88.1327 82.3708 89.0104 82.3708C89.5876 82.3708 90.1347 82.4433 90.6487 82.5881C91.1627 82.733 91.6347 82.9352 92.0675 83.1917C92.4974 83.4512 92.8731 83.753 93.1948 84.103L92.6597 84.8907C92.2359 84.4048 91.7038 84.0185 91.0635 83.7258C90.4232 83.4331 89.7349 83.2882 88.9984 83.2882C88.295 83.2882 87.6668 83.421 87.1137 83.6836C86.5606 83.9461 86.0916 84.3052 85.7099 84.7609C85.3251 85.2166 85.0365 85.7356 84.8381 86.318C84.6397 86.9005 84.5405 87.5131 84.5405 88.1558C84.5405 88.8499 84.6518 89.4927 84.8742 90.0872C85.0966 90.6817 85.4093 91.2038 85.8121 91.6504C86.2149 92.097 86.6838 92.4441 87.2189 92.6885C87.7569 92.9359 88.3341 93.0597 88.9503 93.0597C89.4523 93.0597 89.9423 92.9752 90.4263 92.8092C90.9102 92.6402 91.3431 92.3988 91.7278 92.0819C92.1126 91.7651 92.4192 91.3848 92.6477 90.9442C92.8761 90.5036 92.9904 90.0057 92.9904 89.4535V89.0672H88.8752V88.2313H94.0455V89.2302C94.0455 90.0238 93.8952 90.7179 93.5976 91.3154C93.3 91.9129 92.9032 92.4109 92.4072 92.8062C91.9112 93.2015 91.3611 93.5003 90.7569 93.7024C90.1497 93.9016 89.5425 94.0012 88.9293 94.0012Z" fill="url(#paint9_linear_84_191)"/>
<defs>
<linearGradient id="paint0_linear_84_191" x1="22.3196" y1="17.3918" x2="22.3196" y2="70.7883" gradientUnits="userSpaceOnUse">
<stop stop-color="#C79C63"/>
<stop offset="0.4206" stop-color="#E2CB95"/>
<stop offset="0.4664" stop-color="#E6D19B"/>
<stop offset="0.5713" stop-color="#E2CB95"/>
<stop offset="0.7168" stop-color="#DABC85"/>
<stop offset="0.8853" stop-color="#CDA56C"/>
<stop offset="1" stop-color="#C39459"/>
</linearGradient>
<linearGradient id="paint1_linear_84_191" x1="58.6085" y1="17.8299" x2="58.6085" y2="70.2038" gradientUnits="userSpaceOnUse">
<stop stop-color="#C79C63"/>
<stop offset="0.4206" stop-color="#E2CB95"/>
<stop offset="0.4664" stop-color="#E6D19B"/>
<stop offset="0.5713" stop-color="#E2CB95"/>
<stop offset="0.7168" stop-color="#DABC85"/>
<stop offset="0.8853" stop-color="#CDA56C"/>
<stop offset="1" stop-color="#C39459"/>
</linearGradient>
<linearGradient id="paint2_linear_84_191" x1="99.2636" y1="16.9534" x2="99.2636" y2="71.336" gradientUnits="userSpaceOnUse">
<stop stop-color="#C79C63"/>
<stop offset="0.4206" stop-color="#E2CB95"/>
<stop offset="0.4664" stop-color="#E6D19B"/>
<stop offset="0.5713" stop-color="#E2CB95"/>
<stop offset="0.7168" stop-color="#DABC85"/>
<stop offset="0.8853" stop-color="#CDA56C"/>
<stop offset="1" stop-color="#C39459"/>
</linearGradient>
<linearGradient id="paint3_linear_84_191" x1="53.7218" y1="5.5919" x2="65.4449" y2="5.5919" gradientUnits="userSpaceOnUse">
<stop stop-color="#C79C63"/>
<stop offset="0.9017" stop-color="#E2CB95"/>
<stop offset="1" stop-color="#E6D19B"/>
</linearGradient>
<linearGradient id="paint4_linear_84_191" x1="29.4292" y1="92.4146" x2="35.55" y2="86.3176" gradientUnits="userSpaceOnUse">
<stop stop-color="#C79C63"/>
<stop offset="0.9017" stop-color="#E2CB95"/>
<stop offset="1" stop-color="#E6D19B"/>
</linearGradient>
<linearGradient id="paint5_linear_84_191" x1="39.2429" y1="91.241" x2="45.3637" y2="85.1441" gradientUnits="userSpaceOnUse">
<stop stop-color="#C79C63"/>
<stop offset="0.9017" stop-color="#E2CB95"/>
<stop offset="1" stop-color="#E6D19B"/>
</linearGradient>
<linearGradient id="paint6_linear_84_191" x1="47.8284" y1="90.0097" x2="56.1874" y2="81.6832" gradientUnits="userSpaceOnUse">
<stop stop-color="#C79C63"/>
<stop offset="0.9017" stop-color="#E2CB95"/>
<stop offset="1" stop-color="#E6D19B"/>
</linearGradient>
<linearGradient id="paint7_linear_84_191" x1="59.7938" y1="91.241" x2="65.9145" y2="85.1441" gradientUnits="userSpaceOnUse">
<stop stop-color="#C79C63"/>
<stop offset="0.9017" stop-color="#E2CB95"/>
<stop offset="1" stop-color="#E6D19B"/>
</linearGradient>
<linearGradient id="paint8_linear_84_191" x1="68.9257" y1="93.0038" x2="78.572" y2="83.395" gradientUnits="userSpaceOnUse">
<stop stop-color="#C79C63"/>
<stop offset="0.9017" stop-color="#E2CB95"/>
<stop offset="1" stop-color="#E6D19B"/>
</linearGradient>
<linearGradient id="paint9_linear_84_191" x1="84.9318" y1="92.2251" x2="93.1408" y2="84.048" gradientUnits="userSpaceOnUse">
<stop stop-color="#C79C63"/>
<stop offset="0.9017" stop-color="#E2CB95"/>
<stop offset="1" stop-color="#E6D19B"/>
</linearGradient>
</defs>
</svg>
