<svg width="22" height="17" viewBox="0 0 22 17" fill="none" xmlns="http://www.w3.org/2000/svg">
<path d="M20.9 0.00724212C20.8063 -0.00241404 20.7119 -0.00241404 20.6182 0.00724212H1.36816C1.24478 0.00914315 1.12222 0.0276425 1.00378 0.0622421L10.9382 9.95537L20.9 0.00724212Z" fill="black"/>
<path d="M21.9175 0.962646L11.9075 10.9314C11.6499 11.1875 11.3014 11.3312 10.9381 11.3312C10.5749 11.3312 10.2264 11.1875 9.96875 10.9314L0.048125 1.03827C0.0176271 1.15036 0.0014566 1.26587 0 1.38202V15.132C0 15.4967 0.144866 15.8464 0.402728 16.1043C0.660591 16.3622 1.01033 16.507 1.375 16.507H20.625C20.9897 16.507 21.3394 16.3622 21.5973 16.1043C21.8551 15.8464 22 15.4967 22 15.132V1.38202C21.9945 1.23878 21.9667 1.09728 21.9175 0.962646ZM2.31688 15.132H1.36125V14.1489L6.35938 9.19202L7.32875 10.1614L2.31688 15.132ZM20.6112 15.132H19.6488L14.6369 10.1614L15.6062 9.19202L20.6044 14.1489L20.6112 15.132Z" fill="black"/>
</svg>
