<svg width="14" height="22" viewBox="0 0 14 22" fill="none" xmlns="http://www.w3.org/2000/svg">
<path d="M12.4444 0H1.55556C1.143 0 0.747335 0.165561 0.455612 0.460261C0.163889 0.754961 0 1.15466 0 1.57143V20.4286C0 20.8453 0.163889 21.245 0.455612 21.5397C0.747335 21.8344 1.143 22 1.55556 22H12.4444C12.857 22 13.2527 21.8344 13.5444 21.5397C13.8361 21.245 14 20.8453 14 20.4286V1.57143C14 1.15466 13.8361 0.754961 13.5444 0.460261C13.2527 0.165561 12.857 0 12.4444 0ZM7.77778 20.4286H6.22222V18.8571H7.77778V20.4286ZM1.55556 17.2857V1.57143H12.4444V17.2857H1.55556Z" fill="black"/>
</svg>
