<svg width="17" height="22" viewBox="0 0 17 22" fill="none" xmlns="http://www.w3.org/2000/svg">
<path d="M8.5 6.56716C7.16429 6.56716 6.07143 7.74925 6.07143 9.19403C6.07143 10.6388 7.16429 11.8209 8.5 11.8209C9.83571 11.8209 10.9286 10.6388 10.9286 9.19403C10.9286 7.74925 9.83571 6.56716 8.5 6.56716ZM8.5 0C12.4707 0 17 3.23104 17 9.39104C17 13.3051 14.4136 17.4293 9.24071 21.7242C8.80357 22.0919 8.19643 22.0919 7.75929 21.7242C2.58643 17.4161 0 13.3051 0 9.39104C0 3.23104 4.52929 0 8.5 0Z" fill="black"/>
</svg>
