<svg width="25" height="16" viewBox="0 0 25 16" fill="none" xmlns="http://www.w3.org/2000/svg">
<path d="M20.9909 4.02339L24.2854 8V13.0058H22.1234C22.1234 13.8168 21.7974 14.5185 21.1453 15.1111C20.4933 15.7037 19.7125 16 18.8031 16C17.8937 16 17.1215 15.7037 16.4866 15.1111C15.8517 14.5185 15.5343 13.8168 15.5343 13.0058H8.9452C8.9452 13.8168 8.61917 14.5185 7.96713 15.1111C7.31508 15.7037 6.53434 16 5.62491 16C4.71548 16 3.94332 15.7037 3.30843 15.1111C2.67355 14.5185 2.3561 13.8168 2.3561 13.0058H0.142578V2.0117C0.142578 1.45029 0.357067 0.974659 0.786044 0.584795C1.21502 0.194932 1.73837 0 2.3561 0H17.6963V4.02339H20.9909ZM5.62491 14.5029C6.08821 14.5029 6.48287 14.3548 6.80889 14.0585C7.13491 13.7622 7.29792 13.4035 7.29792 12.9825C7.29792 12.5614 7.13491 12.2105 6.80889 11.9298C6.48287 11.6491 6.08821 11.5088 5.62491 11.5088C5.16162 11.5088 4.77554 11.6491 4.46667 11.9298C4.15781 12.2105 4.00338 12.5614 4.00338 12.9825C4.00338 13.4035 4.15781 13.7622 4.46667 14.0585C4.77554 14.3548 5.16162 14.5029 5.62491 14.5029ZM20.4761 5.52047H17.6963V8H22.5867L20.4761 5.52047ZM18.8031 14.5029C19.2664 14.5029 19.6611 14.3548 19.9871 14.0585C20.3131 13.7622 20.4761 13.4035 20.4761 12.9825C20.4761 12.5614 20.3131 12.2105 19.9871 11.9298C19.6611 11.6491 19.2664 11.5088 18.8031 11.5088C18.3398 11.5088 17.9537 11.6491 17.6449 11.9298C17.336 12.2105 17.1816 12.5614 17.1816 12.9825C17.1816 13.4035 17.336 13.7622 17.6449 14.0585C17.9537 14.3548 18.3398 14.5029 18.8031 14.5029Z" fill="#313132"/>
</svg>
