<svg width="25" height="22" viewBox="0 0 25 22" fill="none" xmlns="http://www.w3.org/2000/svg">
<path fill-rule="evenodd" clip-rule="evenodd" d="M10.5473 0.640365L8.7287 2.29609C8.58185 2.42996 8.38278 2.50536 8.17507 2.5058H5.31358C3.99067 2.5058 2.91882 3.48252 2.91882 4.68801V7.29552C2.91882 7.48617 2.83513 7.66656 2.68868 7.80148L0.870074 9.4572C0.421141 9.86642 0.168945 10.4214 0.168945 11C0.168945 11.5786 0.421141 12.1336 0.870074 12.5428L2.68868 14.2C2.83559 14.3338 2.91834 14.5152 2.91882 14.7045V17.312C2.91882 18.5175 3.99067 19.4942 5.31358 19.4942H8.17507C8.38429 19.4942 8.58224 19.5705 8.73031 19.7039L10.5473 21.3611C10.9964 21.7702 11.6054 22 12.2404 22C12.8754 22 13.4844 21.7702 13.9334 21.3611L15.7521 19.7039C15.8989 19.57 16.098 19.4946 16.3057 19.4942H19.1672C20.4901 19.4942 21.5619 18.5175 21.5619 17.312V14.7045C21.5619 14.5138 21.6456 14.3334 21.7921 14.1985L23.6107 12.5428C24.0596 12.1336 24.3118 11.5786 24.3118 11C24.3118 10.4214 24.0596 9.86642 23.6107 9.4572L21.7921 7.80001C21.6452 7.6662 21.5624 7.4848 21.5619 7.29552V4.68801C21.5619 3.48252 20.4901 2.5058 19.1672 2.5058H16.3057C16.0974 2.50575 15.8977 2.43031 15.7504 2.29609L13.9334 0.638898C13.4844 0.229811 12.8754 0 12.2404 0C11.6054 0 10.9964 0.229811 10.5473 0.638898V0.640365ZM7.64719 14.1472L15.6941 6.8145L16.8336 7.85281L8.78664 15.1855L7.64719 14.1472ZM8.21691 7.33365V8.80019H9.8263V7.33365H8.21691ZM14.6544 14.6663H16.2638V13.1998H14.6544V14.6663Z" fill="#313132"/>
</svg>
