<svg width="22" height="22" viewBox="0 0 22 22" fill="none" xmlns="http://www.w3.org/2000/svg">
<path d="M17.5982 20.5337H1.46652V4.40206H11.1602L12.6267 2.93555H1.46652C1.07757 2.93555 0.704558 3.09005 0.429533 3.36508C0.154507 3.6401 0 4.01312 0 4.40206V20.5337C0 20.9227 0.154507 21.2957 0.429533 21.5707C0.704558 21.8458 1.07757 22.0003 1.46652 22.0003H17.5982C17.9871 22.0003 18.3602 21.8458 18.6352 21.5707C18.9102 21.2957 19.0647 20.9227 19.0647 20.5337V9.53487L17.5982 11.0014V20.5337Z" fill="#C4C4C4"/>
<path d="M21.6535 2.818L19.1824 0.346918C19.0727 0.236951 18.9424 0.149704 18.799 0.0901732C18.6556 0.0306429 18.5018 0 18.3465 0C18.1912 0 18.0374 0.0306429 17.894 0.0901732C17.7505 0.149704 17.6202 0.236951 17.5106 0.346918L7.45759 10.4586L6.64367 13.9855C6.609 14.1565 6.61264 14.333 6.65435 14.5024C6.69605 14.6718 6.77478 14.8298 6.88486 14.9652C6.99494 15.1005 7.13365 15.2097 7.291 15.285C7.44836 15.3604 7.62044 15.3999 7.79489 15.4007C7.88505 15.4106 7.97603 15.4106 8.06619 15.4007L11.6225 14.6161L21.6535 4.48983C21.7634 4.38016 21.8507 4.24988 21.9102 4.10644C21.9697 3.96299 22.0004 3.80922 22.0004 3.65391C22.0004 3.49861 21.9697 3.34483 21.9102 3.20139C21.8507 3.05795 21.7634 2.92766 21.6535 2.818ZM10.8599 13.2596L8.17618 13.8535L8.79945 11.1918L16.3667 3.57325L18.4345 5.64104L10.8599 13.2596ZM19.2631 4.81246L17.1953 2.74467L18.3318 1.58612L20.4143 3.66858L19.2631 4.81246Z" fill="#C4C4C4"/>
</svg>
