<svg width="120" height="127" viewBox="0 0 120 127" fill="none" xmlns="http://www.w3.org/2000/svg">
<path d="M60.9496 100.937C53.9187 100.937 47.3461 100.892 42.2191 100.773C34.5287 100.59 28.0343 94.9418 26.7824 87.3371L14.93 15.4889C13.9166 9.35222 8.66664 4.89594 2.44797 4.89594C1.09544 4.89594 0 3.8005 0 2.44797C0 1.09544 1.09544 0 2.44797 0C11.0736 0 18.3542 6.17768 19.7589 14.6878L31.6075 86.536C32.4794 91.8232 36.9916 95.7503 42.3309 95.8733C63.3604 96.3651 109.037 95.5976 109.495 95.5901C110.703 95.6982 111.962 96.6446 111.984 97.9971C112.007 99.3497 110.93 100.464 109.577 100.486C109.231 100.49 82.8882 100.937 60.9496 100.937Z" fill="#C4C4C4"/>
<path d="M98.4149 82.0906H27.9938C26.6413 82.0906 25.5458 80.9951 25.5458 79.6426C25.5458 78.2901 26.6413 77.1946 27.9938 77.1946H98.4149C103.687 77.1946 108.237 73.4351 109.231 68.256L114.906 38.6791C115.528 35.445 114.683 32.1288 112.581 29.5914C110.483 27.0503 107.387 25.5935 104.09 25.5935H90.758C89.4055 25.5935 88.31 24.498 88.31 23.1455C88.31 21.7929 89.4055 20.6975 90.758 20.6975H104.09C108.851 20.6975 113.323 22.8027 116.352 26.4728C119.385 30.1429 120.611 34.9308 119.713 39.6032L114.038 69.18C112.603 76.6618 106.031 82.0906 98.4149 82.0906Z" fill="#C4C4C4"/>
<path d="M46.7013 25.5898H18.6744C17.3219 25.5898 16.2264 24.4944 16.2264 23.1418C16.2264 21.7893 17.3219 20.6938 18.6744 20.6938H46.7013C48.0538 20.6938 49.1492 21.7893 49.1492 23.1418C49.153 24.4981 48.0575 25.5898 46.7013 25.5898Z" fill="#C4C4C4"/>
<path d="M49.0933 126.11C43.0348 126.11 38.1053 121.18 38.1053 115.122C38.1053 109.063 43.0348 104.134 49.0933 104.134C55.1517 104.134 60.0812 109.063 60.0812 115.122C60.0849 121.18 55.1517 126.11 49.0933 126.11ZM49.0933 109.026C45.7324 109.026 43.0013 111.757 43.0013 115.118C43.0013 118.479 45.7324 121.21 49.0933 121.21C52.4541 121.21 55.1853 118.475 55.1853 115.118C55.1853 111.761 52.4541 109.026 49.0933 109.026Z" fill="#C4C4C4"/>
<path d="M90.7581 126.11C84.6996 126.11 79.7701 121.18 79.7701 115.122C79.7701 109.063 84.6996 104.134 90.7581 104.134C96.8165 104.134 101.746 109.063 101.746 115.122C101.746 121.18 96.8165 126.11 90.7581 126.11ZM90.7581 109.026C87.3972 109.026 84.6661 111.757 84.6661 115.118C84.6661 118.479 87.3972 121.21 90.7581 121.21C94.1189 121.21 96.8501 118.475 96.8501 115.118C96.8501 111.761 94.1152 109.026 90.7581 109.026Z" fill="#C4C4C4"/>
<path d="M68.7846 66.4014C68.1326 66.4014 67.5141 66.1443 67.0521 65.6823L44.9681 43.5947C44.2677 42.8942 44.059 41.8434 44.4391 40.9268C44.8154 40.0103 45.7096 39.4141 46.7007 39.4141H55.1848V4.09177C55.1848 2.73924 56.2802 1.6438 57.6328 1.6438H79.9402C81.2928 1.6438 82.3882 2.73924 82.3882 4.09177V39.4178H90.8723C91.8634 39.4178 92.7576 40.014 93.1339 40.9306C93.514 41.8472 93.3053 42.8979 92.6048 43.5984L70.5172 65.686C70.0589 66.1443 69.4367 66.4014 68.7846 66.4014ZM52.6139 44.3138L68.7884 60.4883L84.9629 44.3138H79.9402C78.5877 44.3138 77.4923 43.2183 77.4923 41.8658V6.53974H60.0845V41.8658C60.0845 43.2183 58.989 44.3138 57.6365 44.3138H52.6139Z" fill="#C4C4C4"/>
</svg>
