<svg width="52" height="52" viewBox="0 0 52 52" fill="none" xmlns="http://www.w3.org/2000/svg">
<path d="M25.6667 0.333496C20.5903 0.333496 15.6279 1.83882 11.407 4.65911C7.18618 7.4794 3.89642 11.488 1.95377 16.1779C0.0111209 20.8679 -0.497165 26.0286 0.493189 31.0075C1.48354 35.9863 3.92806 40.5597 7.5176 44.1492C11.1071 47.7388 15.6805 50.1833 20.6594 51.1736C25.6382 52.164 30.7989 51.6557 35.4889 49.7131C40.1788 47.7704 44.1874 44.4806 47.0077 40.2598C49.828 36.0389 51.3333 31.0765 51.3333 26.0002C51.3333 19.1929 48.6292 12.6645 43.8157 7.85109C39.0023 3.03765 32.4739 0.333496 25.6667 0.333496ZM42.4302 17.3858L21.3515 38.4485L8.90313 26.0002C8.47768 25.5747 8.23867 24.9977 8.23867 24.396C8.23867 23.7943 8.47768 23.2173 8.90313 22.7918C9.32859 22.3664 9.90562 22.1274 10.5073 22.1274C11.109 22.1274 11.686 22.3664 12.1115 22.7918L21.3835 32.0639L39.254 14.2095C39.4646 13.9989 39.7147 13.8318 39.99 13.7178C40.2652 13.6037 40.5602 13.5451 40.8581 13.5451C41.156 13.5451 41.4511 13.6037 41.7263 13.7178C42.0015 13.8318 42.2516 13.9989 42.4623 14.2095C42.673 14.4202 42.8401 14.6703 42.9541 14.9455C43.0681 15.2208 43.1268 15.5158 43.1268 15.8137C43.1268 16.1116 43.0681 16.4066 42.9541 16.6819C42.8401 16.9571 42.673 17.2072 42.4623 17.4179L42.4302 17.3858Z" fill="#4DB6AC"/>
</svg>
