<svg width="37" height="33" viewBox="0 0 37 33" fill="none" xmlns="http://www.w3.org/2000/svg">
<path d="M5.02855 4.71423C4.11166 4.71423 3.23232 5.08674 2.58398 5.74982C1.93564 6.41289 1.57141 7.31222 1.57141 8.24995V15.3214C2.4883 15.3214 3.36764 15.6939 4.01598 16.357C4.66432 17.02 5.02855 17.9194 5.02855 18.8571C5.02855 19.7948 4.66432 20.6941 4.01598 21.3572C3.36764 22.0203 2.4883 22.3928 1.57141 22.3928V29.4642C1.57141 30.402 1.93564 31.3013 2.58398 31.9644C3.23232 32.6274 4.11166 32.9999 5.02855 32.9999H32.6857C33.6026 32.9999 34.4819 32.6274 35.1303 31.9644C35.7786 31.3013 36.1428 30.402 36.1428 29.4642V22.3928C35.2259 22.3928 34.3466 22.0203 33.6983 21.3572C33.0499 20.6941 32.6857 19.7948 32.6857 18.8571C32.6857 17.9194 33.0499 17.02 33.6983 16.357C34.3466 15.6939 35.2259 15.3214 36.1428 15.3214V8.24995C36.1428 7.31222 35.7786 6.41289 35.1303 5.74982C34.4819 5.08674 33.6026 4.71423 32.6857 4.71423H5.02855ZM24.9071 10.0178L27.5 12.6696L12.8071 27.6964L10.2143 25.0446L24.9071 10.0178ZM13.343 10.0885C15.037 10.0885 16.4026 11.4851 16.4026 13.2176C16.4026 14.0475 16.0802 14.8434 15.5064 15.4302C14.9326 16.0171 14.1544 16.3467 13.343 16.3467C11.649 16.3467 10.2834 14.9501 10.2834 13.2176C10.2834 12.3877 10.6058 11.5918 11.1795 11.005C11.7533 10.4182 12.5315 10.0885 13.343 10.0885ZM24.3713 21.3674C26.0653 21.3674 27.4308 22.7641 27.4308 24.4966C27.4308 25.3264 27.1085 26.1223 26.5347 26.7092C25.9609 27.296 25.1827 27.6257 24.3713 27.6257C22.6773 27.6257 21.3117 26.2291 21.3117 24.4966C21.3117 23.6667 21.634 22.8708 22.2078 22.2839C22.7816 21.6971 23.5598 21.3674 24.3713 21.3674Z" fill="#313132"/>
</svg>
